<?xml version="1.0" encoding="utf-8"?>
<!-- Generator: Adobe Illustrator 22.0.0, SVG Export Plug-In . SVG Version: 6.00 Build 0)  -->
<svg version="1.1" id="Layer_1" xmlns="http://www.w3.org/2000/svg" x="0px" y="0px"
     viewBox="0 0 283.5 141.7" style="enable-background:new 0 0 283.5 141.7;" xml:space="preserve">
<style type="text/css">
	.Arched_x0020_Green{fill:url(#SVGID_1_);stroke:#FFFFFF;stroke-width:0.25;stroke-miterlimit:1;}
	.st0{fill:#F9B23E;}
	.st1{fill:#FFFFFF;}
	.st2{fill:#D11E49;}
	.st3{fill:#F49746;}
</style>
    <linearGradient id="SVGID_1_" gradientUnits="userSpaceOnUse" x1="-70.8662" y1="283.4648" x2="-70.1591"
                    y2="282.7577">
	<stop offset="0" style="stop-color:#00A64F"/>
        <stop offset="0.9831" style="stop-color:#1D3F24"/>
</linearGradient>
    <g>
	<rect x="141.7" y="0" class="st0" width="141.7" height="141.7"/>
        <polygon class="st1" points="159.5,61.7 163.2,61.3 166.6,75.9 170.1,60.6 174.5,60.1 168,83.9 165.1,83.7 	"/>
        <path class="st1" d="M180.3,74.9c0.7,3,2.7,5,5.1,5.1c1.9,0.1,3.7-0.8,4.7-2.2l6,0.2c-1.4,5-6.1,8.6-10.5,8.2
		c-5.7-0.5-9.9-6.7-9.9-13.9c0-7.3,4.2-13.8,10-14.4c6.1-0.7,11.3,5.8,11.3,13.8c0,1.1-0.2,2.2-0.3,3.3L180.3,74.9z M191.4,69.2
		c-0.9-3.2-3.2-5.1-5.8-4.9c-2.4,0.2-4.7,2.3-5.4,5.2L191.4,69.2z"/>
        <polygon class="st1" points="200.8,47.4 207,46.4 207,87.3 200.8,86.7 	"/>
        <path class="st1" d="M248.5,71.6c0,11.5-9.9,19.6-20.7,18.6c-9.5-0.9-16.7-9.1-16.7-18.3c0-9.4,7.2-17.6,17-18.7
		C239.1,52,248.5,60.3,248.5,71.6 M221,64.9c-1.8,1.9-2.6,4.3-2.6,7c0,5.3,4,9.9,9.5,10.2c6.1,0.3,10.8-4.2,10.8-10.4
		c0-6-4.9-10.7-10.8-10.3C225.3,61.6,222.6,63,221,64.9"/>
        <path class="st1" d="M230.9,112.5c-8.2-2-15.2-7.1-20.1-14.2c-1-1.5-0.9-3.4,0.2-4.4c1.2-1,3-0.7,4.1,0.8c4,5.6,9.6,9.4,15.9,10.6
		c16,3.1,31.6-11.3,31.6-32.8c0-21.5-15.6-35.7-31.6-32.3c-5,1.1-9.6,3.8-13.3,7.7c-1.3,1.4-3.2,1.5-4.2,0.3c-1-1.2-0.8-3.2,0.4-4.6
		c4.6-5.2,10.5-8.9,17.1-10.6c21-5.4,42.6,11.7,42.6,39.4C273.5,100.2,251.9,117.6,230.9,112.5"/>
        <path class="st1" d="M164.5,94.5c-7.5-1.6-12.8-12.1-12.8-23.6c0-11.5,5.3-22.1,12.8-23.8c4.1-0.9,8.2,0.8,11.5,5.2
		c0.7,0.9,0.6,2.4-0.3,3.4c-0.8,0.9-2,1-2.7,0.1c-2.5-3.4-5.5-4.9-8.6-4.3c-5.9,1.1-10.3,9.8-10.3,19.4c0,9.7,4.4,18.3,10.3,19.3
		c3.1,0.5,6.2-1,8.6-4.4c0.7-0.9,1.8-0.9,2.7,0c0.8,0.9,0.9,2.5,0.3,3.4C172.7,93.6,168.6,95.4,164.5,94.5"/>
</g>
    <rect y="0" class="st2" width="141.7" height="141.7"/>
    <g>
	<path class="st1" d="M89.4,106.9l-5.7-16.1H57.4l-5.7,16.1H36.3l27.6-72.1h14l27.4,72.1H89.4z M74.2,64.1
		c-1.4-4.2-2.9-8.5-3.6-11.2c-0.7,2.7-2.2,7-3.6,11.2l-4.6,13.1h16.5L74.2,64.1z"/>
</g>
    <path class="st3" d="M33.3,72.9c-0.3,1-1.4,1.6-2.4,1.2l-20.1-6.7c-1-0.3-1.6-1.4-1.2-2.4l1.7-5c0.3-1,1.4-1.6,2.4-1.2l20.1,6.7
	c1,0.3,1.6,1.4,1.2,2.4L33.3,72.9z"/>
    <path class="st3" d="M32.2,88.7c0.3,1-0.2,2.1-1.2,2.4l-14.3,5.1c-1,0.3-2.1-0.2-2.4-1.2l-1.7-5c-0.3-1,0.2-2.1,1.2-2.4l14.3-5.1
	c1-0.3,2.1,0.2,2.4,1.2L32.2,88.7z"/>
    <path class="st3" d="M28.3,42.7c-0.8,0.7-1,1.9-0.3,2.7L37,57.6c0.7,0.8,1.9,1,2.7,0.3l4.2-3.2c0.8-0.7,1-1.9,0.3-2.7l-9.1-12.2
	c-0.7-0.8-1.9-1-2.7-0.3L28.3,42.7z"/>
    <path class="st3" d="M108.1,72.9c0.3,1,1.4,1.6,2.4,1.2l20.1-6.7c1-0.3,1.6-1.4,1.2-2.4l-1.7-5c-0.3-1-1.4-1.6-2.4-1.2l-20.1,6.7
	c-1,0.3-1.6,1.4-1.2,2.4L108.1,72.9z"/>
    <path class="st3" d="M109.2,88.7c-0.3,1,0.2,2.1,1.2,2.4l14.3,5.1c1,0.3,2.1-0.2,2.4-1.2l1.7-5c0.3-1-0.2-2.1-1.2-2.4l-14.3-5.1
	c-1-0.3-2.1,0.2-2.4,1.2L109.2,88.7z"/>
    <path class="st3" d="M113.1,42.7c0.8,0.7,1,1.9,0.3,2.7l-9.1,12.2c-0.7,0.8-1.9,1-2.7,0.3l-4.2-3.2c-0.8-0.7-1-1.9-0.3-2.7l9.1-12.2
	c0.7-0.8,1.9-1,2.7-0.3L113.1,42.7z"/>
</svg>
